<svg id="Calque_1" data-name="Calque 1" xmlns="http://www.w3.org/2000/svg"
     viewBox="0 0 504.62 129.62">
    <defs>
        <style>
            .cls-1,.cls-4{fill:#4f5789;}.cls-2{fill:#3d98d1;}.cls-3{fill:#f7ec4b;}.cls-4{stroke:#4f5789;stroke-miterlimit:10;stroke-width:2px;}
        </style>
    </defs>
    <title>logo-app</title>
    <path class="cls-1"
          d="M275.34,269.81q-2-.05-3.59-0.05l0.31-1.74L293,266.27,289.82,279a25.86,25.86,0,0,1,7.29-9.44,15.88,15.88,0,0,1,9.85-3.18q5.65,0,8,3.23t2.31,8.78a28,28,0,0,1,7-9,14.1,14.1,0,0,1,9-3q6.06,0,8.57,3a11.05,11.05,0,0,1,2.51,7.39,32.09,32.09,0,0,1-.82,6.52q-0.82,3.85-2,8.78-1.34,5.54-2.36,10a32.18,32.18,0,0,0-1,6.47q0,2.46,1.85,2.46a4.66,4.66,0,0,0,2.82-1.64,18.18,18.18,0,0,0,3.13-4.21L347.3,306a23.45,23.45,0,0,1-6,7.13,12.07,12.07,0,0,1-7.44,2.52q-4.62,0-6.62-2.36a8.59,8.59,0,0,1-2-5.75,32,32,0,0,1,.92-6.77q0.92-4.11,2.26-9.65,1.23-5.13,2.1-9.14a32,32,0,0,0,.87-6.47,9.09,9.09,0,0,0-.62-3.64,2.51,2.51,0,0,0-2.57-1.39,6.08,6.08,0,0,0-3.8,1.59,17.51,17.51,0,0,0-3.69,4.41,39.77,39.77,0,0,0-3.23,6.72,60.81,60.81,0,0,0-2.51,8.52l-4.93,23H296.59l4.72-22.17q1.13-5.54,2.05-10a36.66,36.66,0,0,0,.93-6.93,8.72,8.72,0,0,0-.67-3.75,2.71,2.71,0,0,0-2.72-1.39,6,6,0,0,0-3.44,1.39,16,16,0,0,0-3.8,4.36,42.14,42.14,0,0,0-3.64,7.54,73.71,73.71,0,0,0-3.08,10.83l-4.21,20.12H269.39l9.44-44.35A12,12,0,0,0,275.34,269.81Z"
          transform="translate(-168.64 -233.33)"/>
    <path class="cls-1"
          d="M363.32,243.07q-2.16-.1-3.8-0.1l0.41-1.64,21-1.75-7.7,34.8a18.16,18.16,0,0,1,5.9-5.85,15.18,15.18,0,0,1,8.06-2.16,14.82,14.82,0,0,1,5.7,1.08,13.13,13.13,0,0,1,4.57,3.13,14.75,14.75,0,0,1,3.08,5.08,19.77,19.77,0,0,1,1.13,6.93,36.63,36.63,0,0,1-2.26,13A32.34,32.34,0,0,1,393.14,306a29.37,29.37,0,0,1-9.7,7A29.67,29.67,0,0,1,371,315.65a23.51,23.51,0,0,1-4.67-.41q-2-.41-3.75-0.92l-3.23-.92a11.36,11.36,0,0,0-3-.41q-3.39,0-7.08,3.39L348,315.13a21.64,21.64,0,0,0,3.69-4,13.53,13.53,0,0,0,2-5L367,243.58A17.47,17.47,0,0,0,363.32,243.07Zm3.28,65.29a5.35,5.35,0,0,0,1.18,3.75,4.18,4.18,0,0,0,3.23,1.28,9.21,9.21,0,0,0,6.88-3.34,29.12,29.12,0,0,0,5.24-8.37A56,56,0,0,0,386.47,291a52.14,52.14,0,0,0,1.18-10.52,21.6,21.6,0,0,0-1.18-7.75,4.27,4.27,0,0,0-4.26-3,5.8,5.8,0,0,0-2.82.92,12.11,12.11,0,0,0-3.13,2.77,23.34,23.34,0,0,0-2.88,4.52,25.06,25.06,0,0,0-2.05,6.16l-3.7,17.25A43.55,43.55,0,0,0,366.61,308.36Z"
          transform="translate(-168.64 -233.33)"/>
    <path class="cls-1"
          d="M454.49,270.68a7.08,7.08,0,0,0-2.26,5.13,5.75,5.75,0,0,0,.82,3.08,12.28,12.28,0,0,0,2.16,2.57,32.45,32.45,0,0,0,3.13,2.51l3.85,2.72a27.59,27.59,0,0,1,6,5.75,11.8,11.8,0,0,1,2.31,7.29,14.35,14.35,0,0,1-1.8,7.44A14.78,14.78,0,0,1,464,312.1a20.07,20.07,0,0,1-6.57,2.72,32.85,32.85,0,0,1-7.24.82,28,28,0,0,1-5.7-.56,16.1,16.1,0,0,1-4.77-1.75,10.4,10.4,0,0,1-3.28-2.87,6.71,6.71,0,0,1-1.23-4.06,6.29,6.29,0,0,1,1.8-4.46,6,6,0,0,1,4.57-1.9,5.42,5.42,0,0,1,5.24,3s-7.95,5.82-6.67,7a13.11,13.11,0,0,0,3.54,2.72,12.35,12.35,0,0,0,5.29,1.08,11.75,11.75,0,0,0,7.08-2.16,7.14,7.14,0,0,0,3-6.16,8.59,8.59,0,0,0-2.26-6.11,38,38,0,0,0-6.57-5.29,40.41,40.41,0,0,1-7-5.8,9.82,9.82,0,0,1-2.62-6.93,12.88,12.88,0,0,1,1.54-6.36,14.82,14.82,0,0,1,4.16-4.72,18.42,18.42,0,0,1,6.11-2.93,27.36,27.36,0,0,1,7.39-1,18.31,18.31,0,0,1,9.65,2.31,7.09,7.09,0,0,1,3.8,6.31,5.91,5.91,0,0,1-1.54,4.21,5.49,5.49,0,0,1-4.21,1.64,7.67,7.67,0,0,1-3.29-.72,5.35,5.35,0,0,1-2.36-2.05l6.88-6.57a6.66,6.66,0,0,0-3-2.21,11.16,11.16,0,0,0-4.41-.87Q456.74,268.42,454.49,270.68Z"
          transform="translate(-168.64 -233.33)"/>
    <path class="cls-1"
          d="M495,270.68a7.08,7.08,0,0,0-2.26,5.13,5.75,5.75,0,0,0,.82,3.08,12.27,12.27,0,0,0,2.16,2.57,32.44,32.44,0,0,0,3.13,2.51l3.85,2.72a27.66,27.66,0,0,1,6,5.75,11.8,11.8,0,0,1,2.31,7.29,14.35,14.35,0,0,1-1.8,7.44,14.78,14.78,0,0,1-4.72,4.93,20.07,20.07,0,0,1-6.57,2.72,32.85,32.85,0,0,1-7.24.82,28,28,0,0,1-5.7-.56,16.1,16.1,0,0,1-4.77-1.75,10.4,10.4,0,0,1-3.28-2.87,6.71,6.71,0,0,1-1.23-4.06,6.29,6.29,0,0,1,1.8-4.46,6,6,0,0,1,4.57-1.9,5.41,5.41,0,0,1,5.24,3l-6.67,7a9.13,9.13,0,0,0,3.54,2.72,12.35,12.35,0,0,0,5.29,1.08,11.75,11.75,0,0,0,7.08-2.16,7.14,7.14,0,0,0,3-6.16,8.59,8.59,0,0,0-2.26-6.11,38,38,0,0,0-6.57-5.29,40.41,40.41,0,0,1-7-5.8,9.82,9.82,0,0,1-2.62-6.93,12.88,12.88,0,0,1,1.54-6.36,14.82,14.82,0,0,1,4.16-4.72,18.41,18.41,0,0,1,6.11-2.93,27.33,27.33,0,0,1,7.39-1,18.31,18.31,0,0,1,9.65,2.31,7.09,7.09,0,0,1,3.8,6.31,5.91,5.91,0,0,1-1.54,4.21,5.49,5.49,0,0,1-4.21,1.64,7.67,7.67,0,0,1-3.28-.72,5.34,5.34,0,0,1-2.36-2.05l6.88-6.57a6.66,6.66,0,0,0-3-2.21,11.16,11.16,0,0,0-4.41-.87Q497.29,268.42,495,270.68Z"
          transform="translate(-168.64 -233.33)"/>
    <path class="cls-1"
          d="M524,269.86q-2-.1-3.64-0.1l0.41-1.64,20.84-1.74-7,32.34q-0.82,4-1.28,6.31a19.42,19.42,0,0,0-.46,3.44q0,2.46,1.85,2.46a4.34,4.34,0,0,0,2.82-1.64,20.22,20.22,0,0,0,3-4.21l1.44,0.92a23.42,23.42,0,0,1-6,7.13,12.06,12.06,0,0,1-7.44,2.52q-4.72,0-6.57-2.36a9,9,0,0,1-1.85-5.75,33,33,0,0,1,.41-5q0.41-2.67,1.44-7.19l5.54-24.94A17.22,17.22,0,0,0,524,269.86Zm19.81-22.79a6,6,0,0,1,1.49,4,8.62,8.62,0,0,1-.72,3.49,9.08,9.08,0,0,1-1.9,2.82,9.25,9.25,0,0,1-2.77,1.9,8.25,8.25,0,0,1-3.44.72,5.26,5.26,0,0,1-4.31-1.75,6.26,6.26,0,0,1-1.44-4.11,8,8,0,0,1,.72-3.34,10.61,10.61,0,0,1,1.85-2.82,8.3,8.3,0,0,1,6.16-2.67A5.42,5.42,0,0,1,543.85,247.07Z"
          transform="translate(-168.64 -233.33)"/>
    <path class="cls-1"
          d="M553.14,269.81q-2-.05-3.59-0.05l0.31-1.74,20.94-1.75L567.62,279a25.84,25.84,0,0,1,7.29-9.44,15.88,15.88,0,0,1,9.85-3.18q5.65,0,8,3.23t2.31,8.78a28,28,0,0,1,7-9,14.1,14.1,0,0,1,9-3q6.06,0,8.57,3a11.05,11.05,0,0,1,2.51,7.39,32.08,32.08,0,0,1-.82,6.52q-0.82,3.85-2,8.78Q618,297.58,617,302a32.13,32.13,0,0,0-1,6.47q0,2.46,1.85,2.46a4.66,4.66,0,0,0,2.82-1.64,18.17,18.17,0,0,0,3.13-4.21L625.1,306a23.44,23.44,0,0,1-6,7.13,12.07,12.07,0,0,1-7.44,2.52q-4.62,0-6.62-2.36a8.59,8.59,0,0,1-2-5.75,32,32,0,0,1,.93-6.77q0.92-4.11,2.26-9.65,1.23-5.13,2.11-9.14a32,32,0,0,0,.87-6.47,9.06,9.06,0,0,0-.62-3.64,2.51,2.51,0,0,0-2.57-1.39,6.08,6.08,0,0,0-3.8,1.59,17.52,17.52,0,0,0-3.69,4.41,39.78,39.78,0,0,0-3.23,6.72,60.8,60.8,0,0,0-2.51,8.52l-4.93,23H574.39l4.72-22.17q1.13-5.54,2.05-10a36.66,36.66,0,0,0,.93-6.93,8.72,8.72,0,0,0-.67-3.75,2.71,2.71,0,0,0-2.72-1.39,6,6,0,0,0-3.44,1.39,16,16,0,0,0-3.8,4.36,42.13,42.13,0,0,0-3.64,7.54,73.7,73.7,0,0,0-3.08,10.83l-4.21,20.12H547.19l9.45-44.35A12,12,0,0,0,553.14,269.81Z"
          transform="translate(-168.64 -233.33)"/>
    <path class="cls-1"
          d="M658.21,311.33a14.69,14.69,0,0,0,3.9-2.62,19.74,19.74,0,0,0,2.93-3.44,28.09,28.09,0,0,0,2.05-3.59l1.54,0.92a23.33,23.33,0,0,1-7.44,9.29q-5,3.75-13.19,3.75a19.26,19.26,0,0,1-6.67-1.13,14.21,14.21,0,0,1-5.34-3.44,16.11,16.11,0,0,1-3.54-5.8,24.12,24.12,0,0,1-1.28-8.32,31.06,31.06,0,0,1,2.16-11.45,32.74,32.74,0,0,1,5.9-9.75,29.15,29.15,0,0,1,8.83-6.83,24.13,24.13,0,0,1,11-2.57,22.17,22.17,0,0,1,6.47.82,12.21,12.21,0,0,1,4.36,2.26,9.08,9.08,0,0,1,2.51,3.34,9.84,9.84,0,0,1,.82,4,11.31,11.31,0,0,1-1.54,5.75,15.26,15.26,0,0,1-4.26,4.67,21,21,0,0,1-6.52,3.13,29.47,29.47,0,0,1-8.42,1.13,26.92,26.92,0,0,1-7-.72q-0.41,2.16-.67,4.26a37.82,37.82,0,0,0-.26,4.57A25.58,25.58,0,0,0,645,304a14.14,14.14,0,0,0,1.39,4.16,8.43,8.43,0,0,0,2.67,3,7.27,7.27,0,0,0,4.26,1.18A11.42,11.42,0,0,0,658.21,311.33Zm-3.75-41.27a18.68,18.68,0,0,0-3.59,4.57A35.42,35.42,0,0,0,648,281.1a71.22,71.22,0,0,0-2.05,7.34,20,20,0,0,0,4.62.62,9.62,9.62,0,0,0,5.13-1.39,12.34,12.34,0,0,0,3.75-3.54,16.71,16.71,0,0,0,2.26-4.72,17.45,17.45,0,0,0,.77-5,9.19,9.19,0,0,0-.93-4.26,3,3,0,0,0-2.77-1.8A6.32,6.32,0,0,0,654.47,270.07Z"
          transform="translate(-168.64 -233.33)"/>
    <path class="cls-1"
          d="M416.44,274.88h-0.12l-4.54,20.45q-1,4.52-1.44,7.19a33,33,0,0,0-.41,5,9,9,0,0,0,1.85,5.75q1.85,2.36,6.57,2.36a12.06,12.06,0,0,0,7.44-2.52,23.42,23.42,0,0,0,6-7.13l-1.44-.92a20.22,20.22,0,0,1-3,4.21,4.34,4.34,0,0,1-2.82,1.64q-1.85,0-1.85-2.46a19.42,19.42,0,0,1,.46-3.44q0.46-2.31,1.28-6.31l5.29-24.53a13.52,13.52,0,0,1-4.29-2.46A16,16,0,0,1,416.44,274.88Z"
          transform="translate(-168.64 -233.33)"/>
    <path class="cls-2"
          d="M437.71,243.35a14.33,14.33,0,0,1-2.8,3.94,15.61,15.61,0,0,0,1.66-4.75c0.77-4.8-1.21-9.21-5.19-9.21s-7.45,4.35-8.39,9.12a8.94,8.94,0,0,1,2.62,3.19,11.44,11.44,0,0,0-3.81-2.2c-4.46-1.49-9.9-.31-11.79,3.44s0.83,7.58,5.15,9.15a14.33,14.33,0,0,1,4.42-2,18.13,18.13,0,0,0-4,3.23c-3.6,3.94-5,9.18-2.12,11.5s8,0.34,11.57-3.46a10.91,10.91,0,0,1,.12-4.41,11.5,11.5,0,0,0,1.35,4.19c2.24,3.93,6.82,6,10.48,3.66s4.09-7.37,2-11.29a10.89,10.89,0,0,1-4.35-.75,15.41,15.41,0,0,0,4.82-.64c5-1.51,9.19-5.48,8.6-9.23S442.61,242,437.71,243.35Zm-16.42,9.21a8.07,8.07,0,0,1,7.68-6.43,5.31,5.31,0,0,1,5.44,6.43,8.07,8.07,0,0,1-7.68,6.43A5.31,5.31,0,0,1,421.3,252.56Z"
          transform="translate(-168.64 -233.33)"/>
    <path class="cls-3"
          d="M434.43,252.56a5.31,5.31,0,0,0-5.44-6.43,8.07,8.07,0,0,0-7.68,6.43,5.31,5.31,0,0,0,5.44,6.43A8.07,8.07,0,0,0,434.43,252.56Z"
          transform="translate(-168.64 -233.33)"/>
    <path class="cls-1"
          d="M262.35,277.56a15.45,15.45,0,0,0-3.34-5.85,15.84,15.84,0,0,0-5.75-3.9,21.79,21.79,0,0,0-8.31-1.44,26.11,26.11,0,0,0-20.89,9.55,30.09,30.09,0,0,0-5.34,9.75,34.82,34.82,0,0,0-1.8,11,25.9,25.9,0,0,0,1,7.44,15.36,15.36,0,0,0,9,10.06,21.11,21.11,0,0,0,8.31,1.49A25.85,25.85,0,0,0,247.21,313a27.72,27.72,0,0,0,8.83-7,30.83,30.83,0,0,0,5.49-9.85,34.63,34.63,0,0,0,1.9-11.29A23.88,23.88,0,0,0,262.35,277.56Zm-13,12.27a64.13,64.13,0,0,1-2.77,11.09,33.12,33.12,0,0,1-4.57,8.93q-2.72,3.65-6.31,3.64a4.71,4.71,0,0,1-4.62-2.82,18.14,18.14,0,0,1-1.33-7.65,58.81,58.81,0,0,1,1.18-11.19,63.67,63.67,0,0,1,3.23-11.24,37.4,37.4,0,0,1,4.67-8.67q2.62-3.49,5.6-3.49,5.85,0,5.85,11.29A65.45,65.45,0,0,1,249.37,289.83Z"
          transform="translate(-168.64 -233.33)"/>
    <path class="cls-1"
          d="M210.59,254.57c11.24,3.74,21.91,3.15,27.68-1.86A13.28,13.28,0,0,0,243,243a6.2,6.2,0,0,0-2.37-5.11,5.47,5.47,0,0,0-3.67-1.32,8.87,8.87,0,0,0-8.21,6.72C228,247,230.3,250,234,250a8.43,8.43,0,0,0,5.61-2.37,11.43,11.43,0,0,1-2.69,3.48c-5.82,5-18.38,4.68-30.53-.88-12.67-5.8-24.17-5.53-31.53.73-3.82,3.25-6.09,7.39-6.22,11.36a8.85,8.85,0,0,0,3.86,7.91,5,5,0,0,0,.89.54l0,0h0a5.88,5.88,0,0,0,2.44.51,8.86,8.86,0,0,0,8.21-6.72c0.82-3.71-1.52-6.72-5.23-6.72a8.89,8.89,0,0,0-7.77,5.35,8.5,8.5,0,0,1-.06-1.3c0.11-3.27,1.94-6.59,5.17-9.33,5.19-4.42,12.94-5.34,21.86-2.79l-14.33,62.76h-9.17l-0.44,2h32l0.44-2h-9.17Z"
          transform="translate(-168.64 -233.33)"/>
    <polygon class="cls-4"
             points="8.91 109.63 6.13 109.63 6.13 128.31 17.18 128.31 17.18 125.79 8.91 125.79 8.91 109.63"/>
    <polygon class="cls-4"
             points="27.4 120.18 33.47 120.18 33.47 117.66 27.4 117.66 27.4 112.16 34.81 112.16 34.81 109.63 24.62 109.63 24.62 128.31 35.78 128.31 35.78 125.79 27.4 125.79 27.4 120.18"/>
    <path class="cls-4"
          d="M217.49,350.43c-2.66-1-3-2.17-3-2.95,0-1.17,1-2.36,2.94-2.36a5.92,5.92,0,0,1,3.16.94l0.54,0.39,0.63-2.52-0.26-.18a7.47,7.47,0,0,0-4-1.11c-3.93,0-5.72,2.56-5.72,4.94,0,2.54,1.68,4.42,5,5.58,2.33,0.81,3.29,1.8,3.29,3.41s-1.34,2.8-3.33,2.8a8.11,8.11,0,0,1-5-1.83l-1-.78,0.87,3.61,0.14,0.1a8.85,8.85,0,0,0,5,1.45c3.78,0,6.22-2.17,6.22-5.53S220.15,351.43,217.49,350.43Z"
          transform="translate(-168.64 -233.33)"/>
    <polygon class="cls-4"
             points="75.27 128.31 78.04 128.31 78.04 120.18 84.5 120.18 84.5 117.66 78.04 117.66 78.04 112.16 85.62 112.16 85.62 109.63 75.27 109.63 75.27 128.31"/>
    <polygon class="cls-4"
             points="95.97 109.63 93.19 109.63 93.19 128.31 104.25 128.31 104.25 125.79 95.97 125.79 95.97 109.63"/>
    <polygon class="cls-4"
             points="114.46 120.18 120.53 120.18 120.53 117.66 114.46 117.66 114.46 112.16 121.87 112.16 121.87 109.63 111.68 109.63 111.68 128.31 122.84 128.31 122.84 125.79 114.46 125.79 114.46 120.18"/>
    <path class="cls-4"
          d="M311.28,354.87c0,2.86-1.69,4.5-4.64,4.5s-4.64-1.64-4.64-4.5V343h-2.78V355c0,4.2,2.9,6.92,7.39,6.92S314,359.24,314,355V343h-2.72v11.9Z"
          transform="translate(-168.64 -233.33)"/>
    <path class="cls-4"
          d="M334.24,348.24c0-3.43-2.92-5.27-5.66-5.27h-5.53v18.68h2.78v-8.13h2.38l5.93,8.13h3.31L331,353A5.06,5.06,0,0,0,334.24,348.24Zm-2.8,0a2.8,2.8,0,0,1-3.06,2.75h-2.55v-5.5h2.44C329.8,345.49,331.44,346.35,331.44,348.24Z"
          transform="translate(-168.64 -233.33)"/>
    <rect class="cls-4" x="175.69" y="109.63" width="2.77" height="18.68"/>
    <path class="cls-4"
          d="M362,350.43c-2.66-1-3-2.17-3-2.95,0-1.17,1-2.36,2.94-2.36a5.92,5.92,0,0,1,3.16.94l0.54,0.39,0.63-2.52-0.26-.18a7.47,7.47,0,0,0-4-1.11c-3.93,0-5.72,2.56-5.72,4.94,0,2.54,1.68,4.42,5,5.58,2.34,0.81,3.29,1.8,3.29,3.41s-1.34,2.8-3.33,2.8a8.11,8.11,0,0,1-5-1.83l-1-.78L356,360.4l0.14,0.1a8.85,8.85,0,0,0,5,1.45c3.78,0,6.22-2.17,6.22-5.53S364.62,351.43,362,350.43Z"
          transform="translate(-168.64 -233.33)"/>
    <path class="cls-4"
          d="M380.75,350.43c-2.66-1-3-2.17-3-2.95,0-1.17,1-2.36,2.94-2.36a5.92,5.92,0,0,1,3.16.94l0.54,0.39,0.63-2.52-0.26-.18a7.47,7.47,0,0,0-4-1.11c-3.93,0-5.72,2.56-5.72,4.94,0,2.54,1.68,4.42,5,5.58,2.34,0.81,3.29,1.8,3.29,3.41s-1.34,2.8-3.33,2.8a8.11,8.11,0,0,1-5-1.83l-1-.78,0.87,3.61,0.14,0.1a8.85,8.85,0,0,0,5,1.45c3.78,0,6.22-2.17,6.22-5.53S383.41,351.43,380.75,350.43Z"
          transform="translate(-168.64 -233.33)"/>
    <polygon class="cls-4"
             points="228.55 120.18 234.62 120.18 234.62 117.66 228.55 117.66 228.55 112.16 235.96 112.16 235.96 109.63 225.77 109.63 225.77 128.31 236.93 128.31 236.93 125.79 228.55 125.79 228.55 120.18"/>
    <path class="cls-4"
          d="M425.38,354.87c0,2.86-1.69,4.5-4.64,4.5s-4.64-1.64-4.64-4.5V343h-2.78V355c0,4.2,2.9,6.92,7.39,6.92s7.39-2.71,7.39-6.92V343h-2.72v11.9Z"
          transform="translate(-168.64 -233.33)"/>
    <path class="cls-4"
          d="M448.34,348.24c0-3.43-2.92-5.27-5.66-5.27h-5.53v18.68h2.78v-8.13h2.38l5.93,8.13h3.31L445.13,353A5.06,5.06,0,0,0,448.34,348.24Zm-2.8,0a2.8,2.8,0,0,1-3.06,2.75h-2.55v-5.5h2.44C443.89,345.49,445.53,346.35,445.53,348.24Z"
          transform="translate(-168.64 -233.33)"/>
    <path class="cls-4"
          d="M463.27,350.43c-2.66-1-3-2.17-3-2.95,0-1.17,1-2.36,2.94-2.36a5.92,5.92,0,0,1,3.16.94l0.54,0.39,0.63-2.52-0.26-.18a7.47,7.47,0,0,0-4-1.11c-3.93,0-5.72,2.56-5.72,4.94,0,2.54,1.68,4.42,5,5.58,2.33,0.81,3.29,1.8,3.29,3.41s-1.34,2.8-3.33,2.8a8.11,8.11,0,0,1-5-1.83l-1-.78,0.87,3.61,0.14,0.1a8.85,8.85,0,0,0,5,1.45c3.78,0,6.22-2.17,6.22-5.53S465.93,351.43,463.27,350.43Z"
          transform="translate(-168.64 -233.33)"/>
    <path class="cls-4"
          d="M494.79,343h-5.11v18.68h5.11c6.07,0,10.32-3.84,10.32-9.34S500.86,343,494.79,343Zm7.48,9.34c0,4.2-3,6.81-7.76,6.81h-2.05V345.49h2.05C499.3,345.49,502.27,348.1,502.27,352.3Z"
          transform="translate(-168.64 -233.33)"/>
    <polygon class="cls-4"
             points="347.57 120.18 353.65 120.18 353.65 117.66 347.57 117.66 347.57 112.16 354.98 112.16 354.98 109.63 344.8 109.63 344.8 128.31 355.96 128.31 355.96 125.79 347.57 125.79 347.57 120.18"/>
    <polygon class="cls-4"
             points="374.72 112.16 380.82 112.16 380.82 128.31 383.6 128.31 383.6 112.16 389.73 112.16 389.73 109.63 374.72 109.63 374.72 112.16"/>
    <path class="cls-4"
          d="M573.81,342.66a9.65,9.65,0,1,0,9.76,9.62A9.59,9.59,0,0,0,573.81,342.66Zm7,9.62a7,7,0,0,1-7,7.12A7.11,7.11,0,1,1,580.76,352.28Z"
          transform="translate(-168.64 -233.33)"/>
    <path class="cls-4"
          d="M608.8,343l-5,10.23c-0.61,1.26-1.29,2.68-1.91,4.09-0.52-1.17-1.14-2.5-1.92-4.1l-5-10.23H593l-1.49,18.68h2.61l0.76-9.64c0.06-.77.13-1.77,0.2-2.84,0.5,1.09,1,2.18,1.48,3.12l4.67,9.56h1.18l4.93-10.17c0.38-.8.8-1.66,1.19-2.5,0.06,0.94.12,1.9,0.19,2.83l0.78,9.64h2.73L610.7,343h-1.9Z"
          transform="translate(-168.64 -233.33)"/>
    <path class="cls-4"
          d="M629.51,351a4.25,4.25,0,0,0,1.35-3.18,5,5,0,0,0-5.22-4.86h-4.83v18.68h5.83a5.79,5.79,0,0,0,6.05-5.75A5.51,5.51,0,0,0,629.51,351Zm0.38,4.9c0,2.21-1.87,3.22-3.61,3.22h-2.69v-6.44h2.58C628,352.67,629.9,353.68,629.9,355.9Zm-6.3-5.75v-4.66h1.77c1.3,0,2.69.61,2.69,2.33a2.36,2.36,0,0,1-2.61,2.33h-1.86Z"
          transform="translate(-168.64 -233.33)"/>
    <polygon class="cls-4"
             points="475.14 120.18 481.21 120.18 481.21 117.66 475.14 117.66 475.14 112.16 482.55 112.16 482.55 109.63 472.37 109.63 472.37 128.31 483.53 128.31 483.53 125.79 475.14 125.79 475.14 120.18"/>
    <path class="cls-4"
          d="M665.23,350.43c-2.66-1-3-2.17-3-2.95,0-1.17,1-2.36,2.94-2.36a5.92,5.92,0,0,1,3.16.94l0.54,0.39,0.63-2.52-0.26-.18a7.47,7.47,0,0,0-4-1.11c-3.93,0-5.72,2.56-5.72,4.94,0,2.54,1.68,4.42,5,5.58,2.34,0.81,3.29,1.8,3.29,3.41s-1.34,2.8-3.33,2.8a8.11,8.11,0,0,1-5-1.83l-1-.78,0.87,3.61,0.14,0.1a8.85,8.85,0,0,0,5,1.45c3.78,0,6.22-2.17,6.22-5.53S667.9,351.43,665.23,350.43Z"
          transform="translate(-168.64 -233.33)"/>
</svg>
